<svg xmlns="http://www.w3.org/2000/svg" width="168" height="168"><g fill="none" fill-rule="evenodd"><path fill="#C4CCD3" d="M124.54 8c-63.922.955-97.407 2.272-100.455 3.95C16.721 17.814 12 26.856 12 37v81a31.848 31.848 0 0 0 5.772 18.336l.256-.485c2.26-4.202 9.55-16.122 21.87-35.761l.73-.216-.041-.039A19.926 19.926 0 0 0 54 105h60c11.046 0 20-8.954 20-20V25c0-7.177-3.78-13.472-9.46-17h3.96c17.673 0 32 14.327 32 32v89c0 17.673-14.327 32-32 32h-89c-17.673 0-32-14.327-32-32V40c0-12.084 6.699-22.604 16.585-28.05C29.55 7.6 121.48 6.099 124.541 8Z"/><g stroke="#74828E" transform="translate(12 5)"><rect width="140" height="140" x="2.5" y="2.5" stroke-width="5" rx="32"/><rect width="95" height="95" x="24.5" y="2.5" stroke-width="5" rx="20"/><path stroke-linecap="square" stroke-width="6" d="M28 96 8.5 128.5M114.5 95.5l21 32"/></g><g stroke="#E73C7E" stroke-width="4"><path d="M49 33h10v10H49zM59 33h10v10H59zM69 33h10v10H69zM49 43h10v10H49zM59 43h10v10H59zM69 43h10v10H69zM89 33h10v10H89zM99 33h10v10H99zM99 23h10v10H99zM59 23h10v10H59zM109 33h10v10h-10zM89 43h10v10H89zM99 43h10v10H99zM109 43h10v10h-10zM59 53h10v10H59zM69 53h10v10H69zM79 53h10v10H79zM89 53h10v10H89zM69 63h10v10H69zM79 63h10v10H79zM79 73h10v10H79zM89 63h10v10H89zM99 53h10v10H99zM79 43h10v10H79z"/></g></g></svg>